<?xml version="1.0" standalone="no"?>
<!DOCTYPE svg PUBLIC "-//W3C//DTD SVG 20010904//EN"
 "http://www.w3.org/TR/2001/REC-SVG-20010904/DTD/svg10.dtd">
<svg version="1.0" xmlns="http://www.w3.org/2000/svg"
 width="300.000000pt" height="122.000000pt" viewBox="0 0 300.000000 122.000000"
 preserveAspectRatio="xMidYMid meet">
<metadata>
Created by potrace 1.10, written by Peter Selinger 2001-2011
</metadata>
<g transform="translate(0.000000,122.000000) scale(0.100000,-0.100000)"
fill="#000000" stroke="none">
<path d="M447 966 c-12 -12 -39 -26 -59 -30 -56 -10 -82 -49 -98 -142 -12 -73
-17 -83 -62 -131 l-48 -52 0 -110 c0 -125 12 -151 70 -151 17 0 39 -9 50 -20
19 -19 33 -20 228 -20 196 0 210 1 227 20 11 12 31 20 50 20 56 0 65 21 65
154 l0 117 -45 44 c-42 42 -46 51 -61 135 -19 101 -36 124 -102 136 -20 4 -45
18 -55 31 -16 19 -27 23 -78 23 -50 0 -64 -4 -82 -24z m139 -11 c17 -13 12
-14 -53 -15 -40 0 -73 4 -73 9 0 22 98 27 126 6z m-76 -125 c0 -64 -3 -80 -15
-80 -10 0 -15 -11 -15 -35 0 -27 4 -35 18 -35 14 0 17 -9 17 -45 l0 -45 -107
0 -108 0 1 53 c0 86 33 236 55 252 12 9 44 14 87 15 l67 0 0 -80z m189 62 c17
-13 27 -42 42 -117 10 -55 19 -119 19 -142 l0 -43 -110 0 -110 0 0 45 c0 38 3
45 20 45 16 0 20 7 20 35 0 28 -4 35 -20 35 -18 0 -20 7 -20 80 l0 80 69 0
c51 0 74 -5 90 -18z m-429 -372 c0 -128 -2 -140 -18 -140 -35 0 -42 21 -42
121 0 90 2 100 26 128 14 17 28 31 30 31 2 0 4 -63 4 -140z m553 106 c25 -33
27 -41 27 -128 0 -99 -7 -118 -44 -118 -20 0 -21 6 -23 140 -1 77 2 140 5 140
4 0 19 -16 35 -34z m-313 -81 c0 -8 7 -15 15 -15 8 0 15 7 15 15 0 12 18 15
105 15 l105 0 0 -99 c0 -67 -4 -102 -13 -109 -7 -6 -92 -11 -211 -13 -239 -3
-226 -10 -226 128 l0 93 105 0 c87 0 105 -3 105 -15z"/>
<path d="M1470 756 c0 -19 9 -45 23 -62 l22 -29 -25 18 c-36 25 -86 22 -115
-8 -33 -32 -34 -93 -2 -122 24 -23 38 -26 107 -24 l45 1 0 130 0 130 -27 0
c-25 0 -28 -4 -28 -34z m-16 -112 c21 -8 20 -51 -1 -63 -24 -13 -53 4 -53 33
0 35 17 44 54 30z"/>
<path d="M1148 655 l-45 -125 31 0 c30 0 32 2 56 83 14 45 24 92 22 105 -1 12
2 22 8 22 14 0 30 -42 20 -55 -5 -5 2 -41 14 -80 20 -66 24 -70 53 -73 l32 -3
-18 48 c-10 26 -30 83 -45 126 -26 71 -30 77 -55 77 -27 0 -30 -6 -73 -125z"/>
<path d="M2140 673 c0 -50 6 -99 13 -112 13 -27 52 -42 81 -31 17 5 15 9 -13
38 -38 37 -41 87 -6 87 13 0 21 8 23 23 3 20 0 23 -20 20 -20 -3 -23 0 -20 30
3 30 1 32 -27 32 l-31 0 0 -87z"/>
<path d="M1553 688 c2 -7 15 -46 28 -85 22 -70 24 -73 54 -73 30 0 32 3 54 73
13 39 26 78 28 85 3 8 -4 12 -21 12 -33 0 -50 -38 -41 -90 5 -29 3 -37 -9 -37
-8 0 -14 7 -14 16 1 9 -4 37 -12 64 -13 42 -17 47 -43 47 -19 0 -28 -4 -24
-12z"/>
<path d="M1759 671 c-32 -33 -36 -58 -14 -100 17 -33 33 -41 84 -41 26 0 44 7
59 23 12 13 22 26 22 29 0 13 -51 14 -61 2 -13 -16 -45 -18 -54 -4 -4 6 -10 8
-15 5 -5 -3 -11 -1 -15 4 -8 14 35 61 56 61 28 0 31 -17 4 -24 -14 -4 -25 -11
-25 -17 0 -7 10 -9 26 -5 15 4 39 10 55 13 35 7 37 22 4 57 -34 37 -87 36
-126 -3z"/>
<path d="M1965 675 c-19 -18 -25 -35 -25 -69 0 -24 -3 -51 -6 -60 -5 -13 1
-16 25 -16 31 0 31 0 31 55 0 42 4 57 16 62 31 12 49 -11 52 -66 3 -47 5 -51
28 -51 23 0 24 3 24 60 0 75 -27 110 -85 110 -25 0 -44 -8 -60 -25z"/>
<path d="M2285 674 c-52 -56 -18 -144 55 -144 53 0 68 8 86 42 46 88 -74 174
-141 102z m95 -39 c14 -17 5 -51 -16 -59 -22 -8 -54 11 -54 32 0 38 46 56 70
27z"/>
<path d="M2466 638 c8 -81 31 -108 90 -108 60 0 84 32 84 111 0 56 -1 59 -25
59 -23 0 -25 -3 -25 -49 0 -59 -20 -87 -51 -71 -15 9 -19 22 -19 65 0 55 0 55
-30 55 l-31 0 7 -62z"/>
<path d="M2675 615 l0 -85 28 0 c27 0 28 3 27 38 -3 64 -1 72 25 82 15 6 25
17 25 30 0 18 -6 20 -52 20 l-53 0 0 -85z"/>
</g>
</svg>
